<?xml version="1.0" encoding="UTF-8" standalone="no"?>
<!-- Created with Inkscape (http://www.inkscape.org/) -->
<svg id="svg2" xmlns:rdf="http://www.w3.org/1999/02/22-rdf-syntax-ns#" xmlns="http://www.w3.org/2000/svg" height="1212.5" width="2100" version="1.1" xmlns:cc="http://creativecommons.org/ns#" xmlns:dc="http://purl.org/dc/elements/1.1/">
 <metadata id="metadata8">
  <rdf:RDF>
   <cc:Work rdf:about="">
    <dc:format>image/svg+xml</dc:format>
    <dc:type rdf:resource="http://purl.org/dc/dcmitype/StillImage"/>
    <dc:title/>
   </cc:Work>
  </rdf:RDF>
 </metadata>
 <path id="path2993" fill="#ff9f00" d="m50 1162.5h2e3v-556.25h-1000.1z"/>
 <path id="path3046" fill="#010101" d="m50 50 999.9 556.25-999.9 556.25z"/>
 <path id="path2991-0" fill="#ff012b" d="m50 50 999.88 556.25h1000.2v-556.25z"/>
 <path id="path3072" fill="#fff" d="m302.01 714.65c-15.89-8.6349-34.5-12.619-46.52-27.054-13.003-10.029-17.261-26.427-19.944-41.01-1.416-16.525 4.944-35.431 19.447-44.316 15.817-9.7661 34.713-12.207 52.899-10.1 74.171-0.74304 132.19-0.90787 205.29-3.6464 0.46791-16.814 1.5651-32.403-0.39265-40.127-3.4873-13.141-7.4937-32.782-19.131-37.209-6.8474 15.117-8.2788 32.943-20.033 45.581-11.126 12.21-28.185 19.814-45.037 19.438-15.418 1.2451-32.114-2.9711-42.374-14.464-15.423-9.7527-20.398-28.438-19.591-45.74 0.50409-16.366 5.0699-35.262 19.715-44.563 12.408-10.762 27.101-12.835 41.824-17.449 17.552-6.8638 37.061-3.5957 54.762 1.1254 17.992 5.0401 34.621 15.621 47.375 29.123 10.758 15.689 23.649 30.827 26.822 50.17 6.3595 15.616 4.4818 55.044 4.4818 55.044h30.729l0.00025-138.72h47.601v265.63h-47.601l-0.034-91.275h-36.182s-2.0124 10.768-7.3108 17.645c-10.971 19.604-28.839 34.372-46.375 48.063-12.966 6.9322-24.302 17.27-38.936 21.402-15.847 4.9425-31.256 9.0827-47.402 12.521-15.884 0.88931-31.886 3.4579-48.172 2.3808-22.67 0.52851-46.445-7.1426-65.913-12.457zm105.34-29.821c15.94-3.8094 32.184-6.9057 46.857-14.729 16.495-10.459 42.358-26.701 52.441-44.184 0.21294-0.17268-96.675 2.6818-136.55 3.4753-17.35-0.90969-34.454 1.3423-52.135 1.0935-11.302 3.2123-47.586-5.1761-35.341 15.916 10.22 11.641 24.579 18.637 38.272 25.752 19.747 8.3651 40.556 15.36 62.342 14.048 8.0437-0.0326 16.17 0.0175 24.116-1.3701zm25.42-150.75c16.691-5.1228 16.511-30.128-1.175-33.87-18.515-6.9254-33.652 24.661-14.342 32.698 4.1718 3.8398 10.58 2.3506 15.518 1.1723z"/>
</svg>
